<mxfile host="app.diagrams.net" modified="2022-11-05T10:27:34.599Z" agent="5.0 (Macintosh; Intel Mac OS X 10_15_7) AppleWebKit/605.1.15 (KHTML, like Gecko) Version/16.0 Safari/605.1.15" etag="-PjocfCuzYbkBF35BvXd" version="20.5.2" type="github">
  <diagram id="uoz7pOwWt2_tfnnqxuvT" name="Page-1">
    <mxGraphModel dx="2125" dy="755" grid="1" gridSize="10" guides="1" tooltips="1" connect="1" arrows="1" fold="1" page="1" pageScale="1" pageWidth="827" pageHeight="1169" math="0" shadow="0">
      <root>
        <mxCell id="0" />
        <mxCell id="1" parent="0" />
        <mxCell id="nGBr5ajnXFilVZX0o8bV-7" style="edgeStyle=orthogonalEdgeStyle;rounded=0;orthogonalLoop=1;jettySize=auto;html=1;" edge="1" parent="1" target="nGBr5ajnXFilVZX0o8bV-4">
          <mxGeometry relative="1" as="geometry">
            <mxPoint x="240" y="220" as="sourcePoint" />
          </mxGeometry>
        </mxCell>
        <mxCell id="nGBr5ajnXFilVZX0o8bV-8" style="edgeStyle=orthogonalEdgeStyle;rounded=0;orthogonalLoop=1;jettySize=auto;html=1;entryX=0.8;entryY=0.963;entryDx=0;entryDy=0;entryPerimeter=0;" edge="1" parent="1" source="nGBr5ajnXFilVZX0o8bV-1" target="nGBr5ajnXFilVZX0o8bV-2">
          <mxGeometry relative="1" as="geometry" />
        </mxCell>
        <mxCell id="nGBr5ajnXFilVZX0o8bV-9" style="edgeStyle=orthogonalEdgeStyle;rounded=0;orthogonalLoop=1;jettySize=auto;html=1;" edge="1" parent="1" source="nGBr5ajnXFilVZX0o8bV-1" target="nGBr5ajnXFilVZX0o8bV-5">
          <mxGeometry relative="1" as="geometry" />
        </mxCell>
        <mxCell id="nGBr5ajnXFilVZX0o8bV-10" style="edgeStyle=orthogonalEdgeStyle;rounded=0;orthogonalLoop=1;jettySize=auto;html=1;entryX=0;entryY=0.5;entryDx=0;entryDy=0;" edge="1" parent="1" source="nGBr5ajnXFilVZX0o8bV-1" target="nGBr5ajnXFilVZX0o8bV-3">
          <mxGeometry relative="1" as="geometry" />
        </mxCell>
        <mxCell id="nGBr5ajnXFilVZX0o8bV-12" style="edgeStyle=orthogonalEdgeStyle;rounded=0;orthogonalLoop=1;jettySize=auto;html=1;" edge="1" parent="1" source="nGBr5ajnXFilVZX0o8bV-1" target="nGBr5ajnXFilVZX0o8bV-11">
          <mxGeometry relative="1" as="geometry" />
        </mxCell>
        <mxCell id="nGBr5ajnXFilVZX0o8bV-1" value="USER" style="whiteSpace=wrap;html=1;aspect=fixed;" vertex="1" parent="1">
          <mxGeometry x="190" y="230" width="80" height="80" as="geometry" />
        </mxCell>
        <mxCell id="nGBr5ajnXFilVZX0o8bV-2" value="ID" style="ellipse;whiteSpace=wrap;html=1;" vertex="1" parent="1">
          <mxGeometry x="-10" y="170" width="120" height="80" as="geometry" />
        </mxCell>
        <mxCell id="nGBr5ajnXFilVZX0o8bV-3" value="password&lt;span style=&quot;caret-color: rgba(0, 0, 0, 0); color: rgba(0, 0, 0, 0); font-family: monospace; font-size: 0px; text-align: start;&quot;&gt;%3CmxGraphModel%3E%3Croot%3E%3CmxCell%20id%3D%220%22%2F%3E%3CmxCell%20id%3D%221%22%20parent%3D%220%22%2F%3E%3CmxCell%20id%3D%222%22%20value%3D%22%22%20style%3D%22ellipse%3BwhiteSpace%3Dwrap%3Bhtml%3D1%3B%22%20vertex%3D%221%22%20parent%3D%221%22%3E%3CmxGeometry%20x%3D%2220%22%20y%3D%22100%22%20width%3D%22120%22%20height%3D%2280%22%20as%3D%22geometry%22%2F%3E%3C%2FmxCell%3E%3C%2Froot%3E%3C%2FmxGraphModel%3E&lt;/span&gt;" style="ellipse;whiteSpace=wrap;html=1;" vertex="1" parent="1">
          <mxGeometry x="380" y="130" width="120" height="80" as="geometry" />
        </mxCell>
        <mxCell id="nGBr5ajnXFilVZX0o8bV-4" value="Name" style="ellipse;whiteSpace=wrap;html=1;" vertex="1" parent="1">
          <mxGeometry x="80" y="70" width="120" height="80" as="geometry" />
        </mxCell>
        <mxCell id="nGBr5ajnXFilVZX0o8bV-5" value="email(username" style="ellipse;whiteSpace=wrap;html=1;" vertex="1" parent="1">
          <mxGeometry x="230" y="60" width="120" height="80" as="geometry" />
        </mxCell>
        <mxCell id="nGBr5ajnXFilVZX0o8bV-11" value="about&amp;nbsp;" style="ellipse;whiteSpace=wrap;html=1;" vertex="1" parent="1">
          <mxGeometry x="380" y="230" width="120" height="80" as="geometry" />
        </mxCell>
        <mxCell id="nGBr5ajnXFilVZX0o8bV-21" style="edgeStyle=orthogonalEdgeStyle;rounded=0;orthogonalLoop=1;jettySize=auto;html=1;" edge="1" parent="1" source="nGBr5ajnXFilVZX0o8bV-13" target="nGBr5ajnXFilVZX0o8bV-20">
          <mxGeometry relative="1" as="geometry" />
        </mxCell>
        <mxCell id="nGBr5ajnXFilVZX0o8bV-23" style="edgeStyle=orthogonalEdgeStyle;rounded=0;orthogonalLoop=1;jettySize=auto;html=1;" edge="1" parent="1" source="nGBr5ajnXFilVZX0o8bV-13" target="nGBr5ajnXFilVZX0o8bV-18">
          <mxGeometry relative="1" as="geometry" />
        </mxCell>
        <mxCell id="nGBr5ajnXFilVZX0o8bV-25" style="edgeStyle=orthogonalEdgeStyle;rounded=0;orthogonalLoop=1;jettySize=auto;html=1;entryX=0;entryY=0.5;entryDx=0;entryDy=0;" edge="1" parent="1" source="nGBr5ajnXFilVZX0o8bV-13" target="nGBr5ajnXFilVZX0o8bV-17">
          <mxGeometry relative="1" as="geometry">
            <Array as="points">
              <mxPoint x="-230" y="380" />
              <mxPoint x="-230" y="230" />
            </Array>
          </mxGeometry>
        </mxCell>
        <mxCell id="nGBr5ajnXFilVZX0o8bV-26" style="edgeStyle=orthogonalEdgeStyle;rounded=0;orthogonalLoop=1;jettySize=auto;html=1;entryX=0;entryY=1;entryDx=0;entryDy=0;" edge="1" parent="1" source="nGBr5ajnXFilVZX0o8bV-13" target="nGBr5ajnXFilVZX0o8bV-14">
          <mxGeometry relative="1" as="geometry" />
        </mxCell>
        <mxCell id="nGBr5ajnXFilVZX0o8bV-31" style="edgeStyle=orthogonalEdgeStyle;rounded=0;orthogonalLoop=1;jettySize=auto;html=1;" edge="1" parent="1" source="nGBr5ajnXFilVZX0o8bV-13" target="nGBr5ajnXFilVZX0o8bV-19">
          <mxGeometry relative="1" as="geometry" />
        </mxCell>
        <mxCell id="nGBr5ajnXFilVZX0o8bV-69" style="edgeStyle=orthogonalEdgeStyle;rounded=0;orthogonalLoop=1;jettySize=auto;html=1;entryX=1;entryY=0.5;entryDx=0;entryDy=0;fontColor=#004C99;" edge="1" parent="1" source="nGBr5ajnXFilVZX0o8bV-13" target="nGBr5ajnXFilVZX0o8bV-68">
          <mxGeometry relative="1" as="geometry" />
        </mxCell>
        <mxCell id="nGBr5ajnXFilVZX0o8bV-13" value="POST" style="whiteSpace=wrap;html=1;aspect=fixed;" vertex="1" parent="1">
          <mxGeometry x="-170" y="330" width="100" height="100" as="geometry" />
        </mxCell>
        <mxCell id="nGBr5ajnXFilVZX0o8bV-14" value="&lt;b&gt;&lt;font color=&quot;#004c99&quot;&gt;user_id&lt;/font&gt;&lt;/b&gt;" style="ellipse;whiteSpace=wrap;html=1;fillColor=#D5E8D4;" vertex="1" parent="1">
          <mxGeometry x="-200" y="190" width="90" height="70" as="geometry" />
        </mxCell>
        <mxCell id="nGBr5ajnXFilVZX0o8bV-17" value="image" style="ellipse;whiteSpace=wrap;html=1;" vertex="1" parent="1">
          <mxGeometry x="-270" y="200" width="60" height="60" as="geometry" />
        </mxCell>
        <mxCell id="nGBr5ajnXFilVZX0o8bV-18" value="content" style="ellipse;whiteSpace=wrap;html=1;" vertex="1" parent="1">
          <mxGeometry x="-340" y="270" width="70" height="40" as="geometry" />
        </mxCell>
        <mxCell id="nGBr5ajnXFilVZX0o8bV-19" value="title" style="ellipse;whiteSpace=wrap;html=1;" vertex="1" parent="1">
          <mxGeometry x="-120" y="260" width="70" height="35" as="geometry" />
        </mxCell>
        <mxCell id="nGBr5ajnXFilVZX0o8bV-20" value="post_id" style="ellipse;whiteSpace=wrap;html=1;" vertex="1" parent="1">
          <mxGeometry x="-330" y="440" width="120" height="80" as="geometry" />
        </mxCell>
        <mxCell id="nGBr5ajnXFilVZX0o8bV-28" style="edgeStyle=orthogonalEdgeStyle;rounded=0;orthogonalLoop=1;jettySize=auto;html=1;entryX=0.125;entryY=1.075;entryDx=0;entryDy=0;entryPerimeter=0;" edge="1" parent="1" source="nGBr5ajnXFilVZX0o8bV-27" target="nGBr5ajnXFilVZX0o8bV-1">
          <mxGeometry relative="1" as="geometry" />
        </mxCell>
        <mxCell id="nGBr5ajnXFilVZX0o8bV-30" style="edgeStyle=orthogonalEdgeStyle;rounded=0;orthogonalLoop=1;jettySize=auto;html=1;entryX=1;entryY=0.25;entryDx=0;entryDy=0;" edge="1" parent="1" source="nGBr5ajnXFilVZX0o8bV-27" target="nGBr5ajnXFilVZX0o8bV-13">
          <mxGeometry relative="1" as="geometry" />
        </mxCell>
        <mxCell id="nGBr5ajnXFilVZX0o8bV-27" value="One to Many&lt;br&gt;(Create_user)" style="html=1;whiteSpace=wrap;aspect=fixed;shape=isoRectangle;" vertex="1" parent="1">
          <mxGeometry y="330" width="126.66" height="76" as="geometry" />
        </mxCell>
        <mxCell id="nGBr5ajnXFilVZX0o8bV-29" value="1" style="text;html=1;align=center;verticalAlign=middle;resizable=0;points=[];autosize=1;strokeColor=none;fillColor=none;" vertex="1" parent="1">
          <mxGeometry x="195" y="335" width="30" height="30" as="geometry" />
        </mxCell>
        <mxCell id="nGBr5ajnXFilVZX0o8bV-32" value="n" style="text;html=1;align=center;verticalAlign=middle;resizable=0;points=[];autosize=1;strokeColor=none;fillColor=none;" vertex="1" parent="1">
          <mxGeometry x="30" y="395" width="30" height="30" as="geometry" />
        </mxCell>
        <mxCell id="nGBr5ajnXFilVZX0o8bV-40" style="edgeStyle=orthogonalEdgeStyle;rounded=0;orthogonalLoop=1;jettySize=auto;html=1;" edge="1" parent="1" source="nGBr5ajnXFilVZX0o8bV-34" target="nGBr5ajnXFilVZX0o8bV-54">
          <mxGeometry relative="1" as="geometry">
            <mxPoint x="130" y="585" as="targetPoint" />
          </mxGeometry>
        </mxCell>
        <mxCell id="nGBr5ajnXFilVZX0o8bV-44" style="edgeStyle=orthogonalEdgeStyle;rounded=0;orthogonalLoop=1;jettySize=auto;html=1;entryX=1;entryY=0;entryDx=0;entryDy=0;" edge="1" parent="1" source="nGBr5ajnXFilVZX0o8bV-34" target="nGBr5ajnXFilVZX0o8bV-41">
          <mxGeometry relative="1" as="geometry" />
        </mxCell>
        <mxCell id="nGBr5ajnXFilVZX0o8bV-45" style="edgeStyle=orthogonalEdgeStyle;rounded=0;orthogonalLoop=1;jettySize=auto;html=1;" edge="1" parent="1" source="nGBr5ajnXFilVZX0o8bV-34" target="nGBr5ajnXFilVZX0o8bV-42">
          <mxGeometry relative="1" as="geometry" />
        </mxCell>
        <mxCell id="nGBr5ajnXFilVZX0o8bV-46" style="edgeStyle=orthogonalEdgeStyle;rounded=0;orthogonalLoop=1;jettySize=auto;html=1;entryX=0.36;entryY=0.043;entryDx=0;entryDy=0;entryPerimeter=0;" edge="1" parent="1" source="nGBr5ajnXFilVZX0o8bV-34" target="nGBr5ajnXFilVZX0o8bV-43">
          <mxGeometry relative="1" as="geometry" />
        </mxCell>
        <mxCell id="nGBr5ajnXFilVZX0o8bV-34" value="Comment" style="whiteSpace=wrap;html=1;aspect=fixed;" vertex="1" parent="1">
          <mxGeometry x="210" y="545" width="80" height="80" as="geometry" />
        </mxCell>
        <mxCell id="nGBr5ajnXFilVZX0o8bV-35" value="&lt;b&gt;&lt;font color=&quot;#004c99&quot;&gt;user_id&lt;/font&gt;&lt;/b&gt;" style="ellipse;whiteSpace=wrap;html=1;fillColor=#D5E8D4;" vertex="1" parent="1">
          <mxGeometry x="395" y="515" width="75" height="70" as="geometry" />
        </mxCell>
        <mxCell id="nGBr5ajnXFilVZX0o8bV-41" value="comment_id" style="ellipse;whiteSpace=wrap;html=1;" vertex="1" parent="1">
          <mxGeometry x="80" y="640" width="75" height="70" as="geometry" />
        </mxCell>
        <mxCell id="nGBr5ajnXFilVZX0o8bV-42" value="comment" style="ellipse;whiteSpace=wrap;html=1;" vertex="1" parent="1">
          <mxGeometry x="180" y="680" width="75" height="70" as="geometry" />
        </mxCell>
        <mxCell id="nGBr5ajnXFilVZX0o8bV-43" value="&lt;b&gt;&lt;font color=&quot;#004c99&quot;&gt;post_id&lt;/font&gt;&lt;/b&gt;" style="ellipse;whiteSpace=wrap;html=1;fillColor=#D5E8D4;" vertex="1" parent="1">
          <mxGeometry x="320" y="660" width="75" height="70" as="geometry" />
        </mxCell>
        <mxCell id="nGBr5ajnXFilVZX0o8bV-48" style="edgeStyle=orthogonalEdgeStyle;rounded=0;orthogonalLoop=1;jettySize=auto;html=1;entryX=0.75;entryY=1;entryDx=0;entryDy=0;fontColor=#004C99;" edge="1" parent="1" source="nGBr5ajnXFilVZX0o8bV-47" target="nGBr5ajnXFilVZX0o8bV-1">
          <mxGeometry relative="1" as="geometry" />
        </mxCell>
        <mxCell id="nGBr5ajnXFilVZX0o8bV-52" value="&lt;b&gt;1&lt;/b&gt;" style="edgeLabel;html=1;align=center;verticalAlign=middle;resizable=0;points=[];fontColor=#004C99;" vertex="1" connectable="0" parent="nGBr5ajnXFilVZX0o8bV-48">
          <mxGeometry x="-0.1908" relative="1" as="geometry">
            <mxPoint x="10" as="offset" />
          </mxGeometry>
        </mxCell>
        <mxCell id="nGBr5ajnXFilVZX0o8bV-51" style="edgeStyle=orthogonalEdgeStyle;rounded=0;orthogonalLoop=1;jettySize=auto;html=1;entryX=0.5;entryY=0;entryDx=0;entryDy=0;fontColor=#004C99;" edge="1" parent="1" source="nGBr5ajnXFilVZX0o8bV-47" target="nGBr5ajnXFilVZX0o8bV-34">
          <mxGeometry relative="1" as="geometry" />
        </mxCell>
        <mxCell id="nGBr5ajnXFilVZX0o8bV-47" value="do" style="html=1;whiteSpace=wrap;aspect=fixed;shape=isoRectangle;fontColor=#004C99;fillColor=#FFFFFF;" vertex="1" parent="1">
          <mxGeometry x="210" y="406" width="150" height="90" as="geometry" />
        </mxCell>
        <mxCell id="nGBr5ajnXFilVZX0o8bV-53" value="n" style="text;html=1;align=center;verticalAlign=middle;resizable=0;points=[];autosize=1;strokeColor=none;fillColor=none;fontColor=#004C99;" vertex="1" parent="1">
          <mxGeometry x="235" y="495" width="30" height="30" as="geometry" />
        </mxCell>
        <mxCell id="nGBr5ajnXFilVZX0o8bV-56" style="edgeStyle=orthogonalEdgeStyle;rounded=0;orthogonalLoop=1;jettySize=auto;html=1;entryX=1;entryY=0.75;entryDx=0;entryDy=0;fontColor=#004C99;" edge="1" parent="1" source="nGBr5ajnXFilVZX0o8bV-54" target="nGBr5ajnXFilVZX0o8bV-13">
          <mxGeometry relative="1" as="geometry" />
        </mxCell>
        <mxCell id="nGBr5ajnXFilVZX0o8bV-54" value="have" style="html=1;whiteSpace=wrap;aspect=fixed;shape=isoRectangle;fontColor=#004C99;fillColor=#FFFFFF;" vertex="1" parent="1">
          <mxGeometry x="-9.999999999999988" y="460" width="150" height="90" as="geometry" />
        </mxCell>
        <mxCell id="nGBr5ajnXFilVZX0o8bV-57" value="1&lt;br&gt;" style="text;html=1;align=center;verticalAlign=middle;resizable=0;points=[];autosize=1;strokeColor=none;fillColor=none;fontColor=#004C99;" vertex="1" parent="1">
          <mxGeometry x="-45" y="455" width="30" height="30" as="geometry" />
        </mxCell>
        <mxCell id="nGBr5ajnXFilVZX0o8bV-58" value="n" style="text;html=1;align=center;verticalAlign=middle;resizable=0;points=[];autosize=1;strokeColor=none;fillColor=none;fontColor=#004C99;" vertex="1" parent="1">
          <mxGeometry x="165" y="515" width="30" height="30" as="geometry" />
        </mxCell>
        <mxCell id="nGBr5ajnXFilVZX0o8bV-61" style="edgeStyle=orthogonalEdgeStyle;rounded=0;orthogonalLoop=1;jettySize=auto;html=1;entryX=1;entryY=0.5;entryDx=0;entryDy=0;fontColor=#004C99;" edge="1" parent="1" source="nGBr5ajnXFilVZX0o8bV-59" target="nGBr5ajnXFilVZX0o8bV-60">
          <mxGeometry relative="1" as="geometry" />
        </mxCell>
        <mxCell id="nGBr5ajnXFilVZX0o8bV-63" style="edgeStyle=orthogonalEdgeStyle;rounded=0;orthogonalLoop=1;jettySize=auto;html=1;entryX=1;entryY=0.4;entryDx=0;entryDy=0;entryPerimeter=0;fontColor=#004C99;" edge="1" parent="1" source="nGBr5ajnXFilVZX0o8bV-59" target="nGBr5ajnXFilVZX0o8bV-62">
          <mxGeometry relative="1" as="geometry" />
        </mxCell>
        <mxCell id="nGBr5ajnXFilVZX0o8bV-59" value="Category" style="rounded=0;whiteSpace=wrap;html=1;fontColor=#004C99;fillColor=#FFFFFF;" vertex="1" parent="1">
          <mxGeometry x="-340" y="710" width="120" height="60" as="geometry" />
        </mxCell>
        <mxCell id="nGBr5ajnXFilVZX0o8bV-60" value="cat_id" style="ellipse;whiteSpace=wrap;html=1;" vertex="1" parent="1">
          <mxGeometry x="-510" y="700" width="100" height="70" as="geometry" />
        </mxCell>
        <mxCell id="nGBr5ajnXFilVZX0o8bV-62" value="titile" style="ellipse;whiteSpace=wrap;html=1;" vertex="1" parent="1">
          <mxGeometry x="-480" y="610" width="100" height="70" as="geometry" />
        </mxCell>
        <mxCell id="nGBr5ajnXFilVZX0o8bV-65" value="1&lt;br&gt;" style="edgeStyle=orthogonalEdgeStyle;rounded=0;orthogonalLoop=1;jettySize=auto;html=1;fontColor=#004C99;" edge="1" parent="1" source="nGBr5ajnXFilVZX0o8bV-64" target="nGBr5ajnXFilVZX0o8bV-59">
          <mxGeometry relative="1" as="geometry" />
        </mxCell>
        <mxCell id="nGBr5ajnXFilVZX0o8bV-66" style="edgeStyle=orthogonalEdgeStyle;rounded=0;orthogonalLoop=1;jettySize=auto;html=1;entryX=0.5;entryY=1;entryDx=0;entryDy=0;fontColor=#004C99;" edge="1" parent="1" source="nGBr5ajnXFilVZX0o8bV-64" target="nGBr5ajnXFilVZX0o8bV-13">
          <mxGeometry relative="1" as="geometry" />
        </mxCell>
        <mxCell id="nGBr5ajnXFilVZX0o8bV-67" value="N&lt;br&gt;" style="edgeLabel;html=1;align=center;verticalAlign=middle;resizable=0;points=[];fontColor=#004C99;" vertex="1" connectable="0" parent="nGBr5ajnXFilVZX0o8bV-66">
          <mxGeometry x="-0.0182" y="1" relative="1" as="geometry">
            <mxPoint as="offset" />
          </mxGeometry>
        </mxCell>
        <mxCell id="nGBr5ajnXFilVZX0o8bV-64" value="contains" style="html=1;whiteSpace=wrap;aspect=fixed;shape=isoRectangle;fontColor=#004C99;fillColor=#FFFFFF;" vertex="1" parent="1">
          <mxGeometry x="-240" y="550" width="150" height="90" as="geometry" />
        </mxCell>
        <mxCell id="nGBr5ajnXFilVZX0o8bV-68" value="&lt;b&gt;&lt;font color=&quot;#004c99&quot;&gt;cat_id&lt;/font&gt;&lt;/b&gt;" style="ellipse;whiteSpace=wrap;html=1;fillColor=#D5E8D4;" vertex="1" parent="1">
          <mxGeometry x="-400" y="360" width="80" height="70" as="geometry" />
        </mxCell>
      </root>
    </mxGraphModel>
  </diagram>
</mxfile>
